<?xml version="1.0" encoding="utf-8"?>
<!-- Generator: Adobe Illustrator 24.0.1, SVG Export Plug-In . SVG Version: 6.00 Build 0)  -->
<svg version="1.1" id="Layer_1" fill="white" focusable="false" xmlns="http://www.w3.org/2000/svg" xmlns:xlink="http://www.w3.org/1999/xlink"
	 x="0px" y="0px" viewBox="0 0 30.4 27.5" style="enable-background:new 0 0 30.4 27.5;" xml:space="preserve">
<path d="M29.8,14.8L17.7,27c-0.6,0.6-1.5,0.6-2.1,0l-1.4-1.4c-0.6-0.6-0.6-1.5,0-2.1l9.6-9.7l-9.6-9.7c-0.6-0.6-0.6-1.5,0-2.1
	l1.4-1.4c0.6-0.6,1.5-0.6,2.1,0l12.1,12.1C30.4,13.3,30.4,14.2,29.8,14.8z"/>
<path d="M16.3,14.8L4.1,27c-0.6,0.6-1.5,0.6-2.1,0l-1.4-1.4C0,25,0,24,0.6,23.4l9.6-9.7L0.6,4.1C0,3.5,0,2.6,0.6,2L2,0.6
	C2.6,0,3.5,0,4.1,0.6l12.1,12.1C16.8,13.3,16.8,14.2,16.3,14.8z"/>
</svg>
