<?xml version="1.0" encoding="utf-8"?>
<!-- Generator: Adobe Illustrator 24.0.1, SVG Export Plug-In . SVG Version: 6.00 Build 0)  -->
<svg version="1.1" id="Layer_1" xmlns="http://www.w3.org/2000/svg" xmlns:xlink="http://www.w3.org/1999/xlink" x="0px" y="0px"
	 viewBox="0 0 81.5 92" style="enable-background:new 0 0 81.5 92;" xml:space="preserve">
<style type="text/css">
	.st0{fill:#1582C5;}
	.st1{fill:#EC108C;}
	.st2{fill:#97288D;}
	.st3{fill:#EC222A;}
	.st4{fill:#45B649;}
	.st5{fill:#F68622;}
</style>
<g>
	<path class="st0" d="M24.6,39.8c-10.2,6.4-18,16.1-22,27.6l-0.8,2.4l35.9,20.7c-8.4-10-13-22.6-13-35.7L24.6,39.8z"/>
	<path class="st1" d="M41.4,27.8l12.9,7.5c-0.5-12.2-5.2-23.9-13.3-33l-1.5-1.6L4.6,20.8C17.3,18.8,30.3,21.3,41.4,27.8"/>
	<path class="st2" d="M25.5,36.2L38.3,29c-10.8-5.7-23.2-7.6-35.2-5.3l-2.3,0.4v40.8C5.4,52.8,14.1,42.7,25.5,36.2"/>
	<path class="st3" d="M57,52.4c10.2-6.4,18-16.1,22-27.6l0.8-2.4L43.9,1.7c8.4,10,13,22.6,13,35.7L57,52.4z"/>
	<path class="st4" d="M68.4,72.1c-9.9,0-19.6-2.6-28.2-7.7l-12.9-7.5c0.5,12.2,5.2,23.9,13.3,33l1.4,1.6l34.7-20
		C73.9,71.9,71.2,72.1,68.4,72.1"/>
	<path class="st5" d="M56.1,55.9l-12.8,7.3c10.8,5.7,23.2,7.6,35.2,5.3l2.2-0.4V27.5C76,39.5,67.4,49.6,56.1,55.9"/>
</g>
</svg>
