<?xml version="1.0" encoding="utf-8"?>
<!-- Generator: Adobe Illustrator 24.0.1, SVG Export Plug-In . SVG Version: 6.00 Build 0)  -->
<svg version="1.1" id="Layer_1" xmlns="http://www.w3.org/2000/svg" xmlns:xlink="http://www.w3.org/1999/xlink" x="0px" y="0px"
	 viewBox="0 0 105.8 18.6" style="enable-background:new 0 0 105.8 18.6;" xml:space="preserve">
<style type="text/css">
	.st0{fill-rule:evenodd;clip-rule:evenodd;fill:#F3A83B;}
	.st1{fill:#F3A83B;}
	.st2{fill:#ADADAD;}
	.st3{fill:#FFFFFF;}
</style>
<path class="st0" d="M17.4,6.8l-5.6-0.9L9.2,0.2C9.1,0.1,9,0,8.8,0C8.7,0,8.6,0.1,8.5,0.2L6,5.9L0.3,6.8C0.2,6.8,0.1,6.9,0,7.1
	c0,0.2,0,0.3,0.1,0.4l4.1,4.4l-1,6.2c0,0.2,0,0.3,0.2,0.4c0.1,0.1,0.3,0.1,0.4,0l5-2.9l5,2.9c0.1,0.1,0.3,0.1,0.4,0
	c0.1-0.1,0.2-0.2,0.2-0.4l-1-6.2l4.1-4.4c0.1-0.1,0.1-0.3,0.1-0.4C17.6,6.9,17.5,6.8,17.4,6.8z"/>
<path class="st0" d="M40.3,6.8l-5.6-0.9l-2.5-5.7C32.1,0.1,32,0,31.8,0c-0.1,0-0.3,0.1-0.3,0.2L29,5.9l-5.6,0.9
	c-0.2,0-0.3,0.1-0.3,0.3c0,0.2,0,0.3,0.1,0.4l4.1,4.4l-1,6.2c0,0.2,0,0.3,0.2,0.4c0.1,0.1,0.3,0.1,0.4,0l5-2.9l5,2.9
	c0.1,0.1,0.3,0.1,0.4,0c0.1-0.1,0.2-0.2,0.2-0.4l-1-6.2l4.1-4.4c0.1-0.1,0.1-0.3,0.1-0.4C40.6,6.9,40.5,6.8,40.3,6.8z"/>
<path class="st0" d="M61.3,6.8l-5.6-0.9l-2.5-5.7C53.1,0.1,53,0,52.8,0c-0.2,0-0.3,0.1-0.3,0.2L50,5.9l-5.6,0.9
	c-0.2,0-0.3,0.1-0.3,0.3c0,0.2,0,0.3,0.1,0.4l4.1,4.4l-1,6.2c0,0.2,0,0.3,0.2,0.4c0.1,0.1,0.3,0.1,0.4,0l5-2.9l5,2.9
	c0.1,0.1,0.3,0.1,0.4,0c0.1-0.1,0.2-0.2,0.2-0.4l-1-6.2l4.1-4.4c0.1-0.1,0.1-0.3,0.1-0.4C61.6,6.9,61.5,6.8,61.3,6.8z"/>
<path class="st0" d="M82.6,6.8L77,5.9l-2.5-5.7C74.3,0.1,74.2,0,74.1,0s-0.3,0.1-0.3,0.2l-2.5,5.7l-5.6,0.9c-0.2,0-0.3,0.1-0.3,0.3
	c0,0.2,0,0.3,0.1,0.4l4.1,4.4l-1,6.2c0,0.2,0,0.3,0.2,0.4c0.1,0.1,0.3,0.1,0.4,0l5-2.9l5,2.9c0.1,0.1,0.3,0.1,0.4,0
	c0.1-0.1,0.2-0.2,0.2-0.4l-1-6.2l4.1-4.4C83,7.4,83,7.2,83,7.1C82.9,6.9,82.8,6.8,82.6,6.8z"/>
<path class="st1" d="M96.8,0.2l-2.5,5.7l-5.6,0.9c-0.2,0-0.3,0.1-0.3,0.3c0,0.2,0,0.3,0.1,0.4l4.1,4.4l-1,6.2c0,0.2,0,0.3,0.2,0.4
	s0.3,0.1,0.4,0l4.9-2.8V0C97,0,96.9,0.1,96.8,0.2z"/>
<path class="st2" d="M97.4,0.2l2.5,5.7l5.6,0.9c0.2,0,0.3,0.1,0.3,0.3c0,0.2,0,0.3-0.1,0.4l-4.1,4.4l1,6.2c0,0.2,0,0.3-0.2,0.4
	s-0.3,0.1-0.4,0l-4.9-2.8V0C97.2,0,97.3,0.1,97.4,0.2z"/>
<path class="st3" d="M97,0"/>
</svg>
